<?xml version="1.0" encoding="utf-8"?>

<!-- Generator: Adobe Illustrator 22.0.1, SVG Export Plug-In . SVG Version: 6.00 Build 0)  -->

<svg version="1.1" id="Layer_1" xmlns="http://www.w3.org/2000/svg" xmlns:xlink="http://www.w3.org/1999/xlink" x="0px" y="0px"

	 viewBox="0 0 342.5 203.9" style="enable-background:new 0 0 342.5 203.9;" xml:space="preserve">

<style type="text/css">

	.st0{fill:#1e2837;}

</style>

<g>

	<g>

		<path class="st0" d="M132.4,156c-1.1-2.6-3-4.1-5.6-4.1h-0.6c-2.7,0-4.6,1.5-5.7,4.1l-15.4,37c-0.3,0.7-0.6,1.5-0.6,2.2

			c0,2.7,2,4.8,4.5,4.8c2,0,3.7-1.2,4.5-3.2l12.8-32.4l12.7,32.1c0.9,2.2,2.4,3.6,4.7,3.6c2.6,0,4.6-2.2,4.6-5

			c0-0.7-0.2-1.3-0.5-2.1L132.4,156z"/>

		<path class="st0" d="M336.8,193.1l-15.4-37c-1.1-2.6-3-4.1-5.6-4.1h-0.6c-2.7,0-4.6,1.5-5.7,4.1l-15.4,37

			c-0.3,0.7-0.6,1.5-0.6,2.2c0,2.7,2,4.8,4.5,4.8c2,0,3.7-1.2,4.5-3.2l12.8-32.4l12.7,32.1c0.9,2.2,2.4,3.6,4.7,3.6

			c2.6,0,4.6-2.2,4.6-5C337.3,194.5,337.1,193.8,336.8,193.1z"/>

		<path class="st0" d="M195.3,152.7h-15.4c-2.7,0-4.9,2.3-4.9,5.2v37.1c0,2.9,2.2,5.2,4.9,5.2c2.7,0,4.9-2.3,4.9-5.2v-10.3h7.8

			l9.5,12.8c1.1,1.5,2.6,2.7,4.8,2.7c2.3,0,4.6-1.9,4.6-4.8c0-1.6-0.6-2.7-1.6-4l-6.8-8.7c5.4-2.4,8.9-6.9,8.9-14.3v-0.1

			c0-4.4-1.3-8.1-3.8-10.8C205.3,154.4,200.9,152.7,195.3,152.7z M202.1,168.9c0,4-2.7,6.7-7.5,6.7h-9.9V162h9.7

			c4.7,0,7.7,2.3,7.7,6.7V168.9z"/>

		<path class="st0" d="M271,152.2c-2,0-3.5,1.2-4.7,3.1l-10.9,16.6l-10.8-16.5c-1.2-1.9-2.6-3.2-4.8-3.2c-2.7,0-4.9,2.2-4.9,5

			c0,1.5,0.5,2.7,1.2,3.7l14.3,20.6v13.4c0,2.9,2.2,5.2,4.9,5.2c2.7,0,4.9-2.3,4.9-5.2v-13.6l14.3-20.5c0.6-0.9,1.3-2.2,1.3-3.6

			C275.7,154.4,273.9,152.2,271,152.2z"/>

	</g>

	<g>

		<path class="st0" d="M235.3,88.1c-17.9,0-35.8,0-53.8,0c-2.1,0-4.1,1.5-4.6,3.5c-2.4,9.1-4.8,18.2-7.2,27.3

			c-10.9-32.5-21.8-65-32.7-97.5c-1.8-5.3-3.6-10.6-5.4-16c-1.6-4.7-7.6-4.4-9.3,0c-8,21.3-16.1,42.6-24.1,63.9

			C85.5,103.1,72.7,136.9,60,170.7c-2.5,6.7-5,13.4-7.6,20c-14.8,0-29.5,0-44.3,0c-6.2,0-6.2,9.6,0,9.6c15.9,0,31.7,0,47.6,0

			c2.3,0,3.9-1.5,4.6-3.5c8-21.3,16.1-42.6,24.1-63.9C97.2,99.2,110,65.4,122.8,31.6c1.3-3.5,2.7-7.1,4-10.6

			c11.2,33.3,22.4,66.7,33.6,100c1.8,5.3,3.6,10.6,5.4,16c1.5,4.4,8,4.8,9.3,0c3.4-13.1,6.9-26.1,10.3-39.2c16.7,0,33.4,0,50.1,0

			C241.5,97.8,241.5,88.1,235.3,88.1z"/>

		<ellipse class="st0" cx="251.9" cy="93" rx="6.7" ry="6.7"/>

	</g>

</g>

</svg>
